<svg version="1.1" xmlns="http://www.w3.org/2000/svg" xmlns:xlink="http://www.w3.org/1999/xlink" width="48" height="48" viewBox="0,0,256,256"><g fill="none" fill-rule="nonzero" stroke="none" stroke-width="1" stroke-linecap="butt" stroke-linejoin="miter" stroke-miterlimit="10" stroke-dasharray="" stroke-dashoffset="0" font-family="none" font-weight="none" font-size="none" text-anchor="none" style="mix-blend-mode: normal"><g transform="scale(5.33333,5.33333)"><path d="M42,37c0,2.762 -2.238,5 -5,5h-26c-2.761,0 -5,-2.238 -5,-5v-26c0,-2.762 2.239,-5 5,-5h26c2.762,0 5,2.238 5,5z" fill="#ffd2f1"></path><path d="M33.061,26.273c-0.703,-0.221 -1.464,0.175 -1.686,0.895c-0.824,2.658 -2.316,5.419 -2.993,5.57c-0.507,0 -1.236,-0.43 -1.958,-1.44c1.674,-3.594 2.551,-8.106 2.551,-11.118c0,-8.413 -2.124,-10.18 -3.908,-10.18c-3.757,0 -3.8,9.912 -3.8,10.012c0,1.166 0.042,2.248 0.121,3.256c-0.518,-0.189 -1.113,-0.319 -1.77,-0.319c-3.86,0 -5.618,3.809 -5.618,7.347c0,3.334 1.871,6.704 6.046,6.704c1.972,0 3.634,-1.291 4.975,-3.221c1.188,1.235 2.432,1.696 3.36,1.696c2.923,0 4.858,-5.233 5.556,-7.486c0.223,-0.719 -0.17,-1.487 -0.876,-1.716zM20.048,34.264c-3.031,0 -3.36,-2.775 -3.36,-3.969c0,-0.188 0.034,-4.611 2.932,-4.611c1.144,0 2.022,0.885 2.022,0.885c0.065,0.07 0.137,0.131 0.212,0.184c0.375,1.904 0.904,3.426 1.516,4.632c-1.004,1.738 -2.167,2.879 -3.322,2.879zM24.901,27.926c-0.559,-1.93 -0.946,-4.521 -0.946,-7.914c0,-3.126 0.666,-6.068 1.219,-7.073c0.424,0.644 1.115,2.65 1.115,7.241c0,2.436 -0.539,5.266 -1.388,7.746z" fill="#32292f"></path></g></g></svg>